<svg width="1028" height="313" viewBox="0 0 1028 313" fill="none" xmlns="http://www.w3.org/2000/svg">
<path d="M170.529 26.488V4.744H163.149V2.332H180.717V4.744H173.337V26.488H170.529ZM185.719 31.852C184.903 31.852 184.159 31.684 183.487 31.348V29.296C184.495 29.464 185.071 29.548 185.215 29.548C186.175 29.548 186.919 29.404 187.447 29.116C187.975 28.828 188.419 28.228 188.779 27.316L189.319 25.84L182.479 8.632H185.431L190.687 22.204H190.759L195.583 8.632H198.355L191.335 27.604C190.735 29.188 190.015 30.292 189.175 30.916C188.359 31.54 187.207 31.852 185.719 31.852ZM201.718 31.816V8.668H204.382V10.108H204.526C205.846 8.908 207.61 8.308 209.818 8.308C212.002 8.308 213.766 9.004 215.11 10.396C216.454 11.764 217.126 13.996 217.126 17.092V17.56C217.126 20.704 216.418 23.032 215.002 24.544C213.61 26.056 211.63 26.812 209.062 26.812C207.406 26.812 205.882 26.416 204.49 25.624V31.816H201.718ZM208.81 24.544C212.434 24.544 214.246 22.348 214.246 17.956V17.236C214.246 14.812 213.814 13.108 212.95 12.124C212.11 11.14 210.826 10.648 209.098 10.648C207.274 10.648 205.738 11.08 204.49 11.944V23.284C205.498 24.124 206.938 24.544 208.81 24.544ZM228.283 26.812C225.763 26.812 223.783 26.032 222.343 24.472C220.927 22.912 220.219 20.716 220.219 17.884V17.344C220.219 14.56 220.951 12.364 222.415 10.756C223.903 9.124 225.871 8.308 228.319 8.308C230.839 8.308 232.819 9.1 234.259 10.684C235.699 12.244 236.419 14.428 236.419 17.236V17.74C236.419 20.548 235.675 22.768 234.187 24.4C232.699 26.008 230.731 26.812 228.283 26.812ZM228.355 24.544C229.987 24.544 231.271 23.992 232.207 22.888C233.143 21.76 233.611 20.152 233.611 18.064V17.164C233.611 14.836 233.119 13.156 232.135 12.124C231.175 11.092 229.891 10.576 228.283 10.576C226.651 10.576 225.367 11.14 224.431 12.268C223.495 13.396 223.027 14.992 223.027 17.056V17.956C223.027 22.348 224.803 24.544 228.355 24.544ZM246.794 31.78C244.13 31.78 242.126 31.408 240.782 30.664C239.462 29.944 238.802 28.924 238.802 27.604C238.802 25.924 239.93 24.712 242.186 23.968V23.788C240.986 23.452 240.386 22.708 240.386 21.556C240.386 20.572 241.058 19.588 242.402 18.604C240.914 17.62 240.17 16.132 240.17 14.14V14.068C240.17 12.244 240.782 10.828 242.006 9.82C243.254 8.812 244.886 8.308 246.902 8.308C247.742 8.308 248.582 8.404 249.422 8.596H255.47V10.72H252.266C253.13 11.536 253.562 12.628 253.562 13.996V14.032C253.562 15.88 252.938 17.296 251.69 18.28C250.442 19.264 248.834 19.756 246.866 19.756C245.786 19.756 244.766 19.588 243.806 19.252C243.254 19.756 242.978 20.236 242.978 20.692C242.978 21.58 243.566 22.024 244.742 22.024H249.674C253.442 22.024 255.326 23.452 255.326 26.308C255.326 27.94 254.618 29.26 253.202 30.268C251.81 31.276 249.674 31.78 246.794 31.78ZM246.722 29.62C250.538 29.62 252.446 28.636 252.446 26.668C252.446 25.852 252.206 25.288 251.726 24.976C251.246 24.64 250.418 24.472 249.242 24.472H244.094C242.486 25.024 241.682 25.948 241.682 27.244C241.682 28.828 243.362 29.62 246.722 29.62ZM246.866 17.596C249.482 17.596 250.79 16.444 250.79 14.14V13.96C250.79 11.584 249.482 10.396 246.866 10.396C245.642 10.396 244.67 10.708 243.95 11.332C243.254 11.956 242.906 12.82 242.906 13.924V14.104C242.906 15.256 243.254 16.132 243.95 16.732C244.67 17.308 245.642 17.596 246.866 17.596ZM258.776 26.488V8.632H261.404V10.648H261.584C262.112 10.024 262.832 9.508 263.744 9.1C264.656 8.668 265.592 8.452 266.552 8.452C267.032 8.452 267.392 8.476 267.632 8.524V11.008C267.176 10.936 266.744 10.9 266.336 10.9C264.584 10.9 262.988 11.416 261.548 12.448V26.488H258.776ZM275.578 26.812C273.898 26.812 272.542 26.392 271.51 25.552C270.502 24.688 269.998 23.44 269.998 21.808C269.998 18.76 271.81 17.032 275.434 16.624L280.258 16.048V14.176C280.258 12.832 279.934 11.92 279.286 11.44C278.638 10.936 277.486 10.684 275.83 10.684C274.318 10.684 272.902 10.876 271.582 11.26V9.28C273.142 8.632 274.918 8.308 276.91 8.308C280.99 8.308 283.03 10.06 283.03 13.564V26.488H280.798L280.51 24.94H280.33C279.298 26.188 277.714 26.812 275.578 26.812ZM276.262 24.652C278.062 24.652 279.394 24.22 280.258 23.356V18.1L276.154 18.568C275.026 18.688 274.198 19 273.67 19.504C273.142 19.984 272.878 20.728 272.878 21.736C272.878 22.696 273.178 23.428 273.778 23.932C274.378 24.412 275.206 24.652 276.262 24.652ZM288.202 31.816V8.668H290.866V10.108H291.01C292.33 8.908 294.094 8.308 296.302 8.308C298.486 8.308 300.25 9.004 301.594 10.396C302.938 11.764 303.61 13.996 303.61 17.092V17.56C303.61 20.704 302.902 23.032 301.486 24.544C300.094 26.056 298.114 26.812 295.546 26.812C293.89 26.812 292.366 26.416 290.974 25.624V31.816H288.202ZM295.294 24.544C298.918 24.544 300.73 22.348 300.73 17.956V17.236C300.73 14.812 300.298 13.108 299.434 12.124C298.594 11.14 297.31 10.648 295.582 10.648C293.758 10.648 292.222 11.08 290.974 11.944V23.284C291.982 24.124 293.422 24.544 295.294 24.544ZM307.819 26.488V0.711999H310.555V10.18H310.735C312.463 8.932 314.467 8.308 316.747 8.308C318.523 8.308 319.831 8.704 320.671 9.496C321.511 10.264 321.931 11.5 321.931 13.204V26.488H319.195V13.744C319.195 12.64 318.943 11.86 318.439 11.404C317.935 10.924 316.987 10.684 315.595 10.684C314.059 10.684 312.379 11.128 310.555 12.016V26.488H307.819ZM328.488 31.852C327.672 31.852 326.928 31.684 326.256 31.348V29.296C327.264 29.464 327.84 29.548 327.984 29.548C328.944 29.548 329.688 29.404 330.216 29.116C330.744 28.828 331.188 28.228 331.548 27.316L332.088 25.84L325.248 8.632H328.2L333.456 22.204H333.528L338.352 8.632H341.124L334.104 27.604C333.504 29.188 332.784 30.292 331.944 30.916C331.128 31.54 329.976 31.852 328.488 31.852Z" fill="#FF30D9"/>
<rect x="1.5" y="42.5" width="501" height="269" rx="71.5" stroke="#FF30D9" stroke-width="3"/>
<g filter="url(#filter0_d_105_106)">
<path d="M38.6016 155.875H52.0312C54.6562 155.875 56.9375 156.266 58.875 157.047C60.8125 157.828 62.3047 158.984 63.3516 160.516C64.4141 162.047 64.9453 163.938 64.9453 166.188C64.9453 168.141 64.6406 169.773 64.0312 171.086C63.4219 172.398 62.5703 173.484 61.4766 174.344C60.3984 175.188 59.1406 175.883 57.7031 176.43L55.0078 177.953H43.7344L43.6875 171.602H52.0312C53.0781 171.602 53.9453 171.414 54.6328 171.039C55.3203 170.664 55.8359 170.133 56.1797 169.445C56.5391 168.742 56.7188 167.906 56.7188 166.938C56.7188 165.953 56.5391 165.109 56.1797 164.406C55.8203 163.703 55.2891 163.164 54.5859 162.789C53.8984 162.414 53.0469 162.227 52.0312 162.227H46.8281V190H38.6016V155.875ZM57.2812 190L49.7344 174.906L58.4531 174.859L66.0938 189.648V190H57.2812ZM68.5547 177.578V177.086C68.5547 175.227 68.8203 173.516 69.3516 171.953C69.8828 170.375 70.6641 169.008 71.6953 167.852C72.7266 166.695 74 165.797 75.5156 165.156C77.0312 164.5 78.7812 164.172 80.7656 164.172C82.7656 164.172 84.5234 164.5 86.0391 165.156C87.5703 165.797 88.8516 166.695 89.8828 167.852C90.9141 169.008 91.6953 170.375 92.2266 171.953C92.7578 173.516 93.0234 175.227 93.0234 177.086V177.578C93.0234 179.422 92.7578 181.133 92.2266 182.711C91.6953 184.273 90.9141 185.641 89.8828 186.812C88.8516 187.969 87.5781 188.867 86.0625 189.508C84.5469 190.148 82.7969 190.469 80.8125 190.469C78.8281 190.469 77.0703 190.148 75.5391 189.508C74.0078 188.867 72.7266 187.969 71.6953 186.812C70.6641 185.641 69.8828 184.273 69.3516 182.711C68.8203 181.133 68.5547 179.422 68.5547 177.578ZM76.4531 177.086V177.578C76.4531 178.531 76.5234 179.422 76.6641 180.25C76.8047 181.078 77.0391 181.805 77.3672 182.43C77.6953 183.039 78.1406 183.516 78.7031 183.859C79.2656 184.203 79.9688 184.375 80.8125 184.375C81.6406 184.375 82.3281 184.203 82.875 183.859C83.4375 183.516 83.8828 183.039 84.2109 182.43C84.5391 181.805 84.7734 181.078 84.9141 180.25C85.0547 179.422 85.125 178.531 85.125 177.578V177.086C85.125 176.164 85.0547 175.297 84.9141 174.484C84.7734 173.656 84.5391 172.93 84.2109 172.305C83.8828 171.664 83.4375 171.164 82.875 170.805C82.3125 170.445 81.6094 170.266 80.7656 170.266C79.9375 170.266 79.2422 170.445 78.6797 170.805C78.1328 171.164 77.6953 171.664 77.3672 172.305C77.0391 172.93 76.8047 173.656 76.6641 174.484C76.5234 175.297 76.4531 176.164 76.4531 177.086ZM96.6094 154H104.508V183.766L103.688 190H96.6094V154ZM120.07 177.039V177.531C120.07 179.453 119.875 181.203 119.484 182.781C119.094 184.359 118.492 185.727 117.68 186.883C116.867 188.023 115.844 188.906 114.609 189.531C113.375 190.156 111.914 190.469 110.227 190.469C108.695 190.469 107.383 190.141 106.289 189.484C105.195 188.812 104.281 187.891 103.547 186.719C102.812 185.531 102.219 184.164 101.766 182.617C101.312 181.055 100.953 179.383 100.688 177.602V177.016C100.953 175.25 101.312 173.594 101.766 172.047C102.219 170.484 102.812 169.117 103.547 167.945C104.281 166.758 105.188 165.836 106.266 165.18C107.359 164.508 108.664 164.172 110.18 164.172C111.883 164.172 113.352 164.492 114.586 165.133C115.836 165.773 116.867 166.672 117.68 167.828C118.492 168.984 119.094 170.344 119.484 171.906C119.875 173.469 120.07 175.18 120.07 177.039ZM112.172 177.531V177.039C112.172 176.117 112.117 175.25 112.008 174.438C111.898 173.625 111.703 172.906 111.422 172.281C111.141 171.656 110.742 171.164 110.227 170.805C109.711 170.445 109.039 170.266 108.211 170.266C107.367 170.266 106.656 170.406 106.078 170.688C105.516 170.969 105.062 171.375 104.719 171.906C104.391 172.422 104.156 173.062 104.016 173.828C103.875 174.578 103.812 175.43 103.828 176.383V178.234C103.797 179.531 103.914 180.641 104.18 181.562C104.445 182.484 104.906 183.188 105.562 183.672C106.219 184.156 107.117 184.398 108.258 184.398C109.102 184.398 109.781 184.234 110.297 183.906C110.828 183.578 111.227 183.109 111.492 182.5C111.758 181.891 111.938 181.164 112.031 180.32C112.125 179.477 112.172 178.547 112.172 177.531ZM122.602 177.578V177.086C122.602 175.227 122.867 173.516 123.398 171.953C123.93 170.375 124.711 169.008 125.742 167.852C126.773 166.695 128.047 165.797 129.562 165.156C131.078 164.5 132.828 164.172 134.812 164.172C136.812 164.172 138.57 164.5 140.086 165.156C141.617 165.797 142.898 166.695 143.93 167.852C144.961 169.008 145.742 170.375 146.273 171.953C146.805 173.516 147.07 175.227 147.07 177.086V177.578C147.07 179.422 146.805 181.133 146.273 182.711C145.742 184.273 144.961 185.641 143.93 186.812C142.898 187.969 141.625 188.867 140.109 189.508C138.594 190.148 136.844 190.469 134.859 190.469C132.875 190.469 131.117 190.148 129.586 189.508C128.055 188.867 126.773 187.969 125.742 186.812C124.711 185.641 123.93 184.273 123.398 182.711C122.867 181.133 122.602 179.422 122.602 177.578ZM130.5 177.086V177.578C130.5 178.531 130.57 179.422 130.711 180.25C130.852 181.078 131.086 181.805 131.414 182.43C131.742 183.039 132.188 183.516 132.75 183.859C133.312 184.203 134.016 184.375 134.859 184.375C135.688 184.375 136.375 184.203 136.922 183.859C137.484 183.516 137.93 183.039 138.258 182.43C138.586 181.805 138.82 181.078 138.961 180.25C139.102 179.422 139.172 178.531 139.172 177.578V177.086C139.172 176.164 139.102 175.297 138.961 174.484C138.82 173.656 138.586 172.93 138.258 172.305C137.93 171.664 137.484 171.164 136.922 170.805C136.359 170.445 135.656 170.266 134.812 170.266C133.984 170.266 133.289 170.445 132.727 170.805C132.18 171.164 131.742 171.664 131.414 172.305C131.086 172.93 130.852 173.656 130.711 174.484C130.57 175.297 130.5 176.164 130.5 177.086ZM163.945 164.641V170.125H148.664V164.641H163.945ZM151.875 158.336H159.773V181.727C159.773 182.398 159.852 182.922 160.008 183.297C160.164 183.656 160.43 183.914 160.805 184.07C161.195 184.211 161.711 184.281 162.352 184.281C162.805 184.281 163.18 184.273 163.477 184.258C163.773 184.227 164.055 184.188 164.32 184.141V189.789C163.648 190.008 162.945 190.172 162.211 190.281C161.477 190.406 160.695 190.469 159.867 190.469C158.18 190.469 156.734 190.203 155.531 189.672C154.344 189.141 153.438 188.305 152.812 187.164C152.188 186.023 151.875 184.539 151.875 182.711V158.336ZM165.398 177.578V177.086C165.398 175.227 165.664 173.516 166.195 171.953C166.727 170.375 167.508 169.008 168.539 167.852C169.57 166.695 170.844 165.797 172.359 165.156C173.875 164.5 175.625 164.172 177.609 164.172C179.609 164.172 181.367 164.5 182.883 165.156C184.414 165.797 185.695 166.695 186.727 167.852C187.758 169.008 188.539 170.375 189.07 171.953C189.602 173.516 189.867 175.227 189.867 177.086V177.578C189.867 179.422 189.602 181.133 189.07 182.711C188.539 184.273 187.758 185.641 186.727 186.812C185.695 187.969 184.422 188.867 182.906 189.508C181.391 190.148 179.641 190.469 177.656 190.469C175.672 190.469 173.914 190.148 172.383 189.508C170.852 188.867 169.57 187.969 168.539 186.812C167.508 185.641 166.727 184.273 166.195 182.711C165.664 181.133 165.398 179.422 165.398 177.578ZM173.297 177.086V177.578C173.297 178.531 173.367 179.422 173.508 180.25C173.648 181.078 173.883 181.805 174.211 182.43C174.539 183.039 174.984 183.516 175.547 183.859C176.109 184.203 176.812 184.375 177.656 184.375C178.484 184.375 179.172 184.203 179.719 183.859C180.281 183.516 180.727 183.039 181.055 182.43C181.383 181.805 181.617 181.078 181.758 180.25C181.898 179.422 181.969 178.531 181.969 177.578V177.086C181.969 176.164 181.898 175.297 181.758 174.484C181.617 173.656 181.383 172.93 181.055 172.305C180.727 171.664 180.281 171.164 179.719 170.805C179.156 170.445 178.453 170.266 177.609 170.266C176.781 170.266 176.086 170.445 175.523 170.805C174.977 171.164 174.539 171.664 174.211 172.305C173.883 172.93 173.648 173.656 173.508 174.484C173.367 175.297 173.297 176.164 173.297 177.086Z" fill="white"/>
</g>
<path d="M261.562 87.875V122H253.336V87.875H261.562ZM271.828 87.875V94.2266H243.305V87.875H271.828ZM283.289 96.6406V122H275.367V96.6406H283.289ZM274.898 90.1016C274.898 88.9766 275.305 88.0547 276.117 87.3359C276.93 86.6172 277.984 86.2578 279.281 86.2578C280.578 86.2578 281.633 86.6172 282.445 87.3359C283.258 88.0547 283.664 88.9766 283.664 90.1016C283.664 91.2266 283.258 92.1484 282.445 92.8672C281.633 93.5859 280.578 93.9453 279.281 93.9453C277.984 93.9453 276.93 93.5859 276.117 92.8672C275.305 92.1484 274.898 91.2266 274.898 90.1016ZM301.523 96.6406V102.125H286.242V96.6406H301.523ZM289.453 90.3359H297.352V113.727C297.352 114.398 297.43 114.922 297.586 115.297C297.742 115.656 298.008 115.914 298.383 116.07C298.773 116.211 299.289 116.281 299.93 116.281C300.383 116.281 300.758 116.273 301.055 116.258C301.352 116.227 301.633 116.188 301.898 116.141V121.789C301.227 122.008 300.523 122.172 299.789 122.281C299.055 122.406 298.273 122.469 297.445 122.469C295.758 122.469 294.312 122.203 293.109 121.672C291.922 121.141 291.016 120.305 290.391 119.164C289.766 118.023 289.453 116.539 289.453 114.711V90.3359ZM313.008 86V122H305.086V86H313.008ZM330.164 122.469C328.102 122.469 326.258 122.148 324.633 121.508C323.008 120.852 321.633 119.953 320.508 118.812C319.398 117.672 318.547 116.359 317.953 114.875C317.375 113.391 317.086 111.82 317.086 110.164V109.273C317.086 107.414 317.344 105.695 317.859 104.117C318.375 102.523 319.141 101.133 320.156 99.9453C321.172 98.7578 322.445 97.8359 323.977 97.1797C325.508 96.5078 327.289 96.1719 329.32 96.1719C331.117 96.1719 332.727 96.4609 334.148 97.0391C335.57 97.6172 336.773 98.4453 337.758 99.5234C338.758 100.602 339.516 101.906 340.031 103.438C340.562 104.969 340.828 106.688 340.828 108.594V111.805H320.109V106.859H333.117V106.25C333.133 105.406 332.984 104.688 332.672 104.094C332.375 103.5 331.938 103.047 331.359 102.734C330.781 102.422 330.078 102.266 329.25 102.266C328.391 102.266 327.68 102.453 327.117 102.828C326.57 103.203 326.141 103.719 325.828 104.375C325.531 105.016 325.32 105.758 325.195 106.602C325.07 107.445 325.008 108.336 325.008 109.273V110.164C325.008 111.102 325.133 111.953 325.383 112.719C325.648 113.484 326.023 114.141 326.508 114.688C327.008 115.219 327.602 115.633 328.289 115.93C328.992 116.227 329.789 116.375 330.68 116.375C331.758 116.375 332.82 116.172 333.867 115.766C334.914 115.359 335.812 114.688 336.562 113.75L340.148 118.016C339.633 118.75 338.898 119.461 337.945 120.148C337.008 120.836 335.883 121.398 334.57 121.836C333.258 122.258 331.789 122.469 330.164 122.469ZM380.18 108.664V114.758H355.617L355.148 109.93L368.859 87.875H375.094L368.32 98.9609L362.695 108.664H380.18ZM376.734 87.875V122H368.836V87.875H376.734ZM407.414 112.602C407.414 114.773 406.898 116.594 405.867 118.062C404.852 119.531 403.445 120.633 401.648 121.367C399.867 122.102 397.836 122.469 395.555 122.469C393.289 122.469 391.25 122.102 389.438 121.367C387.641 120.633 386.219 119.531 385.172 118.062C384.125 116.594 383.602 114.773 383.602 112.602C383.602 111.117 383.898 109.789 384.492 108.617C385.102 107.43 385.945 106.422 387.023 105.594C388.102 104.766 389.359 104.133 390.797 103.695C392.25 103.258 393.82 103.039 395.508 103.039C397.789 103.039 399.828 103.43 401.625 104.211C403.422 104.977 404.836 106.07 405.867 107.492C406.898 108.914 407.414 110.617 407.414 112.602ZM399.469 111.969C399.469 111.031 399.305 110.242 398.977 109.602C398.648 108.945 398.188 108.445 397.594 108.102C397 107.758 396.305 107.586 395.508 107.586C394.727 107.586 394.031 107.758 393.422 108.102C392.828 108.445 392.359 108.945 392.016 109.602C391.688 110.242 391.523 111.031 391.523 111.969C391.523 112.875 391.695 113.664 392.039 114.336C392.383 114.992 392.852 115.5 393.445 115.859C394.055 116.203 394.758 116.375 395.555 116.375C396.352 116.375 397.039 116.203 397.617 115.859C398.211 115.5 398.664 114.992 398.977 114.336C399.305 113.664 399.469 112.875 399.469 111.969ZM406.711 96.9922C406.711 98.7734 406.234 100.336 405.281 101.68C404.344 103.008 403.031 104.047 401.344 104.797C399.672 105.531 397.742 105.898 395.555 105.898C393.383 105.898 391.445 105.531 389.742 104.797C388.055 104.047 386.727 103.008 385.758 101.68C384.805 100.336 384.328 98.7734 384.328 96.9922C384.328 94.8984 384.805 93.1406 385.758 91.7188C386.727 90.2969 388.055 89.2188 389.742 88.4844C391.43 87.75 393.352 87.3828 395.508 87.3828C397.695 87.3828 399.633 87.75 401.32 88.4844C403.008 89.2188 404.328 90.2969 405.281 91.7188C406.234 93.1406 406.711 94.8984 406.711 96.9922ZM398.812 97.4141C398.812 96.6016 398.688 95.9062 398.438 95.3281C398.188 94.7344 397.82 94.2812 397.336 93.9688C396.852 93.6406 396.242 93.4766 395.508 93.4766C394.805 93.4766 394.211 93.6328 393.727 93.9453C393.242 94.2578 392.875 94.7109 392.625 95.3047C392.375 95.8828 392.25 96.5859 392.25 97.4141C392.25 98.2266 392.375 98.9375 392.625 99.5469C392.875 100.156 393.242 100.633 393.727 100.977C394.227 101.32 394.836 101.492 395.555 101.492C396.289 101.492 396.891 101.32 397.359 100.977C397.844 100.633 398.203 100.156 398.438 99.5469C398.688 98.9375 398.812 98.2266 398.812 97.4141ZM419.648 101.516V131.75H411.75V96.6406H419.109L419.648 101.516ZM435.211 109.016V109.508C435.211 111.352 435 113.062 434.578 114.641C434.156 116.219 433.531 117.594 432.703 118.766C431.875 119.938 430.844 120.852 429.609 121.508C428.391 122.148 426.977 122.469 425.367 122.469C423.852 122.469 422.547 122.133 421.453 121.461C420.359 120.789 419.445 119.859 418.711 118.672C417.977 117.484 417.383 116.125 416.93 114.594C416.477 113.062 416.117 111.445 415.852 109.742V109.109C416.117 107.281 416.477 105.586 416.93 104.023C417.383 102.445 417.977 101.07 418.711 99.8984C419.445 98.7266 420.352 97.8125 421.43 97.1562C422.523 96.5 423.828 96.1719 425.344 96.1719C426.953 96.1719 428.367 96.4766 429.586 97.0859C430.82 97.6953 431.852 98.5703 432.68 99.7109C433.523 100.836 434.156 102.188 434.578 103.766C435 105.344 435.211 107.094 435.211 109.016ZM427.312 109.508V109.016C427.312 108.031 427.242 107.133 427.102 106.32C426.961 105.492 426.734 104.773 426.422 104.164C426.125 103.555 425.727 103.086 425.227 102.758C424.727 102.43 424.109 102.266 423.375 102.266C422.531 102.266 421.82 102.398 421.242 102.664C420.68 102.914 420.227 103.305 419.883 103.836C419.555 104.352 419.32 105 419.18 105.781C419.055 106.547 419 107.445 419.016 108.477V110.398C418.984 111.586 419.102 112.633 419.367 113.539C419.633 114.43 420.094 115.125 420.75 115.625C421.406 116.125 422.297 116.375 423.422 116.375C424.172 116.375 424.797 116.203 425.297 115.859C425.797 115.5 426.195 115.008 426.492 114.383C426.789 113.742 427 113.008 427.125 112.18C427.25 111.352 427.312 110.461 427.312 109.508ZM452.086 96.6406V102.125H436.805V96.6406H452.086ZM440.016 90.3359H447.914V113.727C447.914 114.398 447.992 114.922 448.148 115.297C448.305 115.656 448.57 115.914 448.945 116.07C449.336 116.211 449.852 116.281 450.492 116.281C450.945 116.281 451.32 116.273 451.617 116.258C451.914 116.227 452.195 116.188 452.461 116.141V121.789C451.789 122.008 451.086 122.172 450.352 122.281C449.617 122.406 448.836 122.469 448.008 122.469C446.32 122.469 444.875 122.203 443.672 121.672C442.484 121.141 441.578 120.305 440.953 119.164C440.328 118.023 440.016 116.539 440.016 114.711V90.3359Z" fill="white"/>
<path d="M382.822 224.502H380.286L380.272 223.251H382.487C382.861 223.251 383.178 223.196 383.438 223.087C383.702 222.973 383.902 222.811 384.039 222.602C384.176 222.387 384.244 222.13 384.244 221.829C384.244 221.496 384.18 221.225 384.053 221.016C383.925 220.806 383.729 220.653 383.465 220.558C383.205 220.462 382.872 220.414 382.467 220.414H380.806V229H379.09V219.047H382.467C383.014 219.047 383.501 219.099 383.93 219.204C384.363 219.309 384.729 219.473 385.03 219.696C385.336 219.915 385.566 220.193 385.721 220.53C385.88 220.868 385.96 221.269 385.96 221.733C385.96 222.144 385.862 222.52 385.666 222.861C385.47 223.199 385.181 223.474 384.798 223.688C384.415 223.903 383.939 224.03 383.369 224.071L382.822 224.502ZM382.747 229H379.746L380.519 227.64H382.747C383.134 227.64 383.458 227.576 383.718 227.448C383.978 227.316 384.171 227.136 384.299 226.908C384.431 226.676 384.497 226.405 384.497 226.095C384.497 225.771 384.44 225.491 384.326 225.254C384.212 225.012 384.032 224.828 383.786 224.7C383.54 224.568 383.219 224.502 382.822 224.502H380.895L380.908 223.251H383.417L383.807 223.723C384.354 223.741 384.802 223.862 385.153 224.085C385.509 224.308 385.773 224.598 385.946 224.953C386.119 225.309 386.206 225.691 386.206 226.102C386.206 226.735 386.067 227.266 385.789 227.694C385.516 228.123 385.121 228.449 384.606 228.672C384.091 228.891 383.472 229 382.747 229ZM387.457 225.384V225.227C387.457 224.693 387.535 224.199 387.689 223.743C387.844 223.283 388.068 222.884 388.359 222.547C388.656 222.205 389.016 221.941 389.439 221.754C389.868 221.562 390.351 221.467 390.889 221.467C391.431 221.467 391.914 221.562 392.338 221.754C392.766 221.941 393.129 222.205 393.425 222.547C393.721 222.884 393.947 223.283 394.102 223.743C394.257 224.199 394.334 224.693 394.334 225.227V225.384C394.334 225.917 394.257 226.411 394.102 226.867C393.947 227.323 393.721 227.722 393.425 228.063C393.129 228.401 392.769 228.665 392.345 228.856C391.921 229.043 391.44 229.137 390.902 229.137C390.36 229.137 389.875 229.043 389.446 228.856C389.022 228.665 388.662 228.401 388.366 228.063C388.07 227.722 387.844 227.323 387.689 226.867C387.535 226.411 387.457 225.917 387.457 225.384ZM389.104 225.227V225.384C389.104 225.716 389.139 226.031 389.207 226.327C389.275 226.623 389.382 226.883 389.528 227.106C389.674 227.33 389.861 227.505 390.089 227.633C390.317 227.76 390.588 227.824 390.902 227.824C391.208 227.824 391.472 227.76 391.695 227.633C391.923 227.505 392.11 227.33 392.256 227.106C392.402 226.883 392.509 226.623 392.577 226.327C392.65 226.031 392.687 225.716 392.687 225.384V225.227C392.687 224.898 392.65 224.589 392.577 224.297C392.509 224.001 392.399 223.739 392.249 223.511C392.103 223.283 391.916 223.105 391.688 222.978C391.465 222.845 391.199 222.779 390.889 222.779C390.579 222.779 390.31 222.845 390.082 222.978C389.859 223.105 389.674 223.283 389.528 223.511C389.382 223.739 389.275 224.001 389.207 224.297C389.139 224.589 389.104 224.898 389.104 225.227ZM400.227 227.469V218.5H401.881V229H400.384L400.227 227.469ZM395.414 225.384V225.24C395.414 224.68 395.48 224.169 395.612 223.709C395.744 223.244 395.936 222.845 396.187 222.513C396.437 222.175 396.743 221.918 397.103 221.74C397.463 221.558 397.868 221.467 398.319 221.467C398.766 221.467 399.158 221.553 399.495 221.727C399.832 221.9 400.119 222.148 400.356 222.472C400.593 222.791 400.783 223.174 400.924 223.62C401.065 224.062 401.165 224.554 401.225 225.097V225.555C401.165 226.083 401.065 226.566 400.924 227.004C400.783 227.441 400.593 227.82 400.356 228.139C400.119 228.458 399.83 228.704 399.488 228.877C399.151 229.05 398.757 229.137 398.306 229.137C397.859 229.137 397.456 229.043 397.096 228.856C396.74 228.67 396.437 228.408 396.187 228.07C395.936 227.733 395.744 227.337 395.612 226.881C395.48 226.421 395.414 225.922 395.414 225.384ZM397.062 225.24V225.384C397.062 225.721 397.091 226.035 397.15 226.327C397.214 226.619 397.312 226.876 397.444 227.1C397.576 227.318 397.747 227.492 397.957 227.619C398.171 227.742 398.426 227.804 398.723 227.804C399.096 227.804 399.404 227.722 399.646 227.558C399.887 227.394 400.076 227.173 400.213 226.895C400.354 226.612 400.45 226.298 400.5 225.951V224.714C400.473 224.445 400.416 224.194 400.329 223.962C400.247 223.729 400.135 223.527 399.994 223.354C399.853 223.176 399.677 223.039 399.468 222.943C399.263 222.843 399.019 222.793 398.736 222.793C398.436 222.793 398.18 222.857 397.971 222.984C397.761 223.112 397.588 223.287 397.451 223.511C397.319 223.734 397.221 223.994 397.157 224.29C397.093 224.586 397.062 224.903 397.062 225.24ZM405.75 228.193L407.76 221.604H409.523L406.557 230.128C406.488 230.31 406.399 230.508 406.29 230.723C406.181 230.937 406.037 231.14 405.859 231.331C405.686 231.527 405.47 231.684 405.21 231.803C404.95 231.926 404.636 231.987 404.267 231.987C404.121 231.987 403.979 231.974 403.843 231.946C403.711 231.924 403.585 231.898 403.467 231.871L403.46 230.613C403.506 230.618 403.56 230.622 403.624 230.627C403.692 230.632 403.747 230.634 403.788 230.634C404.062 230.634 404.289 230.6 404.472 230.531C404.654 230.467 404.802 230.363 404.916 230.217C405.035 230.071 405.135 229.875 405.217 229.629L405.75 228.193ZM404.615 221.604L406.372 227.141L406.666 228.877L405.524 229.171L402.838 221.604H404.615ZM420.529 227.688V229H413.857V227.872L417.098 224.338C417.453 223.937 417.733 223.59 417.938 223.299C418.144 223.007 418.287 222.745 418.369 222.513C418.456 222.276 418.499 222.046 418.499 221.822C418.499 221.508 418.44 221.232 418.321 220.995C418.207 220.754 418.039 220.564 417.815 220.428C417.592 220.286 417.321 220.216 417.002 220.216C416.633 220.216 416.323 220.296 416.072 220.455C415.822 220.615 415.632 220.836 415.505 221.118C415.377 221.396 415.313 221.715 415.313 222.075H413.666C413.666 221.496 413.798 220.968 414.062 220.489C414.327 220.006 414.71 219.623 415.211 219.341C415.712 219.054 416.316 218.91 417.022 218.91C417.688 218.91 418.253 219.022 418.718 219.245C419.183 219.468 419.536 219.785 419.777 220.195C420.023 220.605 420.146 221.091 420.146 221.651C420.146 221.961 420.096 222.269 419.996 222.574C419.896 222.88 419.752 223.185 419.565 223.49C419.383 223.791 419.167 224.094 418.916 224.399C418.665 224.7 418.39 225.006 418.089 225.315L415.936 227.688H420.529ZM429.799 219.013V229H428.151V220.968L425.711 221.795V220.435L429.601 219.013H429.799ZM440.114 225.452V226.765H432.937L432.882 225.773L437.175 219.047H438.494L437.065 221.494L434.598 225.452H440.114ZM438.87 219.047V229H437.223V219.047H438.87ZM442.965 223.025V231.844H441.317V221.604H442.835L442.965 223.025ZM447.784 225.233V225.377C447.784 225.915 447.72 226.414 447.593 226.874C447.47 227.33 447.285 227.729 447.039 228.07C446.798 228.408 446.499 228.67 446.144 228.856C445.788 229.043 445.378 229.137 444.913 229.137C444.453 229.137 444.049 229.052 443.703 228.884C443.361 228.711 443.072 228.467 442.835 228.152C442.598 227.838 442.407 227.469 442.261 227.045C442.119 226.617 442.019 226.147 441.96 225.637V225.083C442.019 224.541 442.119 224.049 442.261 223.606C442.407 223.164 442.598 222.784 442.835 222.465C443.072 222.146 443.361 221.9 443.703 221.727C444.045 221.553 444.444 221.467 444.899 221.467C445.364 221.467 445.777 221.558 446.137 221.74C446.497 221.918 446.8 222.173 447.046 222.506C447.292 222.834 447.477 223.23 447.6 223.695C447.723 224.156 447.784 224.668 447.784 225.233ZM446.137 225.377V225.233C446.137 224.892 446.105 224.575 446.041 224.283C445.977 223.987 445.877 223.727 445.74 223.504C445.604 223.281 445.428 223.107 445.214 222.984C445.004 222.857 444.751 222.793 444.455 222.793C444.163 222.793 443.913 222.843 443.703 222.943C443.493 223.039 443.318 223.174 443.177 223.347C443.035 223.52 442.926 223.723 442.849 223.955C442.771 224.183 442.716 224.431 442.685 224.7V226.026C442.739 226.354 442.833 226.655 442.965 226.929C443.097 227.202 443.284 227.421 443.525 227.585C443.771 227.744 444.086 227.824 444.469 227.824C444.765 227.824 445.018 227.76 445.228 227.633C445.437 227.505 445.608 227.33 445.74 227.106C445.877 226.879 445.977 226.617 446.041 226.32C446.105 226.024 446.137 225.71 446.137 225.377ZM452.576 221.604V222.807H448.406V221.604H452.576ZM449.609 219.792H451.257V226.956C451.257 227.184 451.289 227.359 451.353 227.482C451.421 227.601 451.514 227.681 451.633 227.722C451.751 227.763 451.89 227.783 452.05 227.783C452.164 227.783 452.273 227.776 452.378 227.763C452.483 227.749 452.567 227.735 452.631 227.722L452.638 228.979C452.501 229.021 452.341 229.057 452.159 229.089C451.981 229.121 451.776 229.137 451.544 229.137C451.166 229.137 450.831 229.071 450.539 228.938C450.247 228.802 450.02 228.581 449.855 228.275C449.691 227.97 449.609 227.564 449.609 227.059V219.792Z" fill="white"/>
<path d="M365.083 249.769H362.492L362.759 248.196L364.659 248.203C364.937 248.203 365.204 248.171 365.459 248.107C365.719 248.039 365.938 247.921 366.115 247.752C366.298 247.583 366.414 247.344 366.464 247.034C366.505 246.752 366.482 246.531 366.396 246.371C366.309 246.207 366.17 246.091 365.979 246.022C365.792 245.95 365.568 245.911 365.309 245.906L364.058 245.899L362.649 254H360.312L362.034 244.047L365.384 244.054C365.817 244.058 366.245 244.106 366.669 244.197C367.093 244.288 367.473 244.437 367.811 244.642C368.148 244.842 368.412 245.116 368.604 245.462C368.795 245.804 368.875 246.232 368.843 246.747C368.811 247.308 368.654 247.763 368.371 248.114C368.093 248.461 367.733 248.718 367.291 248.887C366.849 249.051 366.37 249.14 365.855 249.153L365.083 249.769ZM364.29 254H361.146L362.267 252.154L364.365 252.161C364.625 252.157 364.869 252.113 365.097 252.031C365.329 251.949 365.523 251.822 365.678 251.648C365.837 251.471 365.94 251.245 365.985 250.972C366.026 250.739 366.022 250.536 365.972 250.363C365.926 250.186 365.83 250.047 365.685 249.946C365.543 249.846 365.352 249.789 365.11 249.775L363.025 249.769L363.312 248.196L365.582 248.203L365.992 248.825C366.452 248.83 366.86 248.912 367.216 249.071C367.571 249.231 367.845 249.472 368.036 249.796C368.232 250.115 368.314 250.516 368.282 250.999C368.237 251.742 368.022 252.334 367.64 252.776C367.257 253.214 366.769 253.528 366.177 253.72C365.584 253.911 364.955 254.005 364.29 254ZM369.335 250.418L369.349 250.274C369.408 249.741 369.538 249.242 369.738 248.777C369.939 248.312 370.205 247.905 370.538 247.554C370.875 247.203 371.272 246.932 371.728 246.74C372.183 246.544 372.694 246.453 373.259 246.467C373.801 246.476 374.271 246.581 374.667 246.781C375.063 246.982 375.389 247.255 375.645 247.602C375.9 247.943 376.08 248.34 376.185 248.791C376.294 249.238 376.326 249.714 376.28 250.22L376.267 250.37C376.207 250.899 376.075 251.393 375.87 251.854C375.665 252.314 375.394 252.717 375.057 253.063C374.724 253.41 374.33 253.679 373.874 253.87C373.418 254.062 372.91 254.15 372.35 254.137C371.816 254.128 371.349 254.025 370.948 253.829C370.552 253.629 370.226 253.36 369.971 253.022C369.715 252.681 369.533 252.289 369.424 251.847C369.319 251.4 369.289 250.924 369.335 250.418ZM371.598 250.274L371.584 250.418C371.57 250.605 371.561 250.81 371.557 251.033C371.557 251.252 371.582 251.464 371.632 251.669C371.682 251.869 371.773 252.036 371.905 252.168C372.042 252.296 372.238 252.364 372.493 252.373C372.767 252.382 372.994 252.325 373.177 252.202C373.364 252.079 373.514 251.915 373.628 251.71C373.742 251.505 373.828 251.284 373.888 251.047C373.951 250.81 373.995 250.582 374.018 250.363L374.031 250.22C374.045 250.037 374.052 249.835 374.052 249.611C374.056 249.383 374.034 249.167 373.983 248.962C373.933 248.757 373.84 248.588 373.703 248.456C373.566 248.319 373.37 248.246 373.115 248.237C372.842 248.228 372.612 248.287 372.425 248.415C372.243 248.543 372.094 248.711 371.98 248.921C371.867 249.126 371.78 249.349 371.721 249.591C371.661 249.828 371.62 250.056 371.598 250.274ZM381.038 252.175L382.542 243.5H384.805L382.986 254H380.97L381.038 252.175ZM376.95 250.445L376.964 250.295C377.019 249.844 377.121 249.388 377.271 248.928C377.422 248.467 377.627 248.048 377.887 247.67C378.151 247.292 378.477 246.991 378.864 246.768C379.256 246.544 379.721 246.442 380.259 246.46C380.715 246.478 381.088 246.615 381.38 246.87C381.672 247.125 381.897 247.449 382.057 247.841C382.216 248.228 382.326 248.636 382.385 249.064C382.444 249.493 382.469 249.887 382.46 250.247L382.439 250.432C382.371 250.819 382.253 251.231 382.084 251.669C381.92 252.102 381.703 252.51 381.435 252.893C381.17 253.271 380.856 253.578 380.491 253.815C380.127 254.048 379.714 254.157 379.254 254.144C378.753 254.13 378.342 254.009 378.023 253.781C377.704 253.553 377.458 253.257 377.285 252.893C377.117 252.528 377.007 252.132 376.957 251.703C376.911 251.275 376.909 250.855 376.95 250.445ZM379.22 250.288L379.206 250.432C379.192 250.596 379.181 250.785 379.172 250.999C379.163 251.213 379.174 251.423 379.206 251.628C379.243 251.833 379.318 252.006 379.432 252.147C379.55 252.284 379.726 252.359 379.958 252.373C380.295 252.387 380.571 252.307 380.785 252.134C381.004 251.961 381.17 251.74 381.284 251.471C381.403 251.197 381.478 250.917 381.51 250.63L381.571 250.083C381.594 249.896 381.605 249.698 381.605 249.488C381.61 249.279 381.587 249.08 381.537 248.894C381.487 248.707 381.396 248.552 381.264 248.429C381.132 248.306 380.94 248.242 380.689 248.237C380.425 248.228 380.202 248.29 380.02 248.422C379.842 248.554 379.698 248.727 379.589 248.941C379.484 249.151 379.402 249.377 379.343 249.618C379.288 249.855 379.247 250.078 379.22 250.288ZM386.609 253.022L389.549 246.604H392.03L387.696 255.107C387.564 255.39 387.414 255.647 387.245 255.88C387.081 256.112 386.894 256.313 386.685 256.481C386.475 256.65 386.238 256.78 385.974 256.871C385.709 256.962 385.411 257.008 385.078 257.008C384.905 257.008 384.736 256.992 384.572 256.96C384.408 256.933 384.244 256.898 384.08 256.857L384.251 255.203C384.297 255.208 384.342 255.21 384.388 255.21C384.433 255.215 384.477 255.217 384.518 255.217C384.709 255.217 384.88 255.196 385.03 255.155C385.185 255.119 385.322 255.053 385.44 254.957C385.563 254.861 385.671 254.729 385.762 254.561L386.609 253.022ZM387.231 246.604L387.765 251.895L387.594 254.219H386.131L384.9 246.604H387.231ZM396.583 243.5H398.832L397.301 252.305L396.788 254H394.758L396.583 243.5ZM402.052 250.179L402.038 250.329C401.983 250.789 401.883 251.25 401.737 251.71C401.591 252.166 401.389 252.58 401.129 252.954C400.874 253.323 400.55 253.617 400.158 253.836C399.771 254.055 399.308 254.157 398.771 254.144C398.306 254.13 397.925 254 397.629 253.754C397.333 253.508 397.105 253.196 396.945 252.817C396.786 252.435 396.676 252.031 396.617 251.607C396.562 251.179 396.54 250.778 396.549 250.404L396.562 250.227C396.635 249.83 396.752 249.411 396.911 248.969C397.075 248.527 397.287 248.114 397.547 247.731C397.807 247.344 398.119 247.032 398.483 246.795C398.848 246.558 399.267 246.446 399.741 246.46C400.256 246.469 400.675 246.588 400.999 246.815C401.323 247.039 401.569 247.333 401.737 247.697C401.906 248.062 402.011 248.461 402.052 248.894C402.097 249.326 402.097 249.755 402.052 250.179ZM399.796 250.322L399.803 250.172C399.821 250.003 399.835 249.81 399.844 249.591C399.857 249.372 399.848 249.162 399.816 248.962C399.785 248.757 399.709 248.586 399.591 248.449C399.472 248.312 399.29 248.24 399.044 248.23C398.775 248.217 398.547 248.26 398.36 248.36C398.174 248.461 398.021 248.597 397.902 248.771C397.784 248.944 397.693 249.14 397.629 249.358C397.565 249.577 397.52 249.8 397.492 250.028L397.431 250.575C397.403 250.84 397.394 251.108 397.403 251.382C397.417 251.655 397.492 251.885 397.629 252.072C397.766 252.259 398.007 252.357 398.354 252.366C398.636 252.375 398.866 252.316 399.044 252.188C399.222 252.061 399.361 251.895 399.461 251.689C399.561 251.48 399.634 251.254 399.68 251.013C399.73 250.771 399.769 250.541 399.796 250.322ZM402.749 250.418L402.763 250.274C402.822 249.741 402.952 249.242 403.152 248.777C403.353 248.312 403.619 247.905 403.952 247.554C404.289 247.203 404.686 246.932 405.142 246.74C405.597 246.544 406.108 246.453 406.673 246.467C407.215 246.476 407.685 246.581 408.081 246.781C408.478 246.982 408.803 247.255 409.059 247.602C409.314 247.943 409.494 248.34 409.599 248.791C409.708 249.238 409.74 249.714 409.694 250.22L409.681 250.37C409.621 250.899 409.489 251.393 409.284 251.854C409.079 252.314 408.808 252.717 408.471 253.063C408.138 253.41 407.744 253.679 407.288 253.87C406.832 254.062 406.324 254.15 405.764 254.137C405.23 254.128 404.763 254.025 404.362 253.829C403.966 253.629 403.64 253.36 403.385 253.022C403.13 252.681 402.947 252.289 402.838 251.847C402.733 251.4 402.703 250.924 402.749 250.418ZM405.012 250.274L404.998 250.418C404.984 250.605 404.975 250.81 404.971 251.033C404.971 251.252 404.996 251.464 405.046 251.669C405.096 251.869 405.187 252.036 405.319 252.168C405.456 252.296 405.652 252.364 405.907 252.373C406.181 252.382 406.409 252.325 406.591 252.202C406.778 252.079 406.928 251.915 407.042 251.71C407.156 251.505 407.243 251.284 407.302 251.047C407.366 250.81 407.409 250.582 407.432 250.363L407.445 250.22C407.459 250.037 407.466 249.835 407.466 249.611C407.47 249.383 407.448 249.167 407.397 248.962C407.347 248.757 407.254 248.588 407.117 248.456C406.98 248.319 406.785 248.246 406.529 248.237C406.256 248.228 406.026 248.287 405.839 248.415C405.657 248.543 405.508 248.711 405.395 248.921C405.281 249.126 405.194 249.349 405.135 249.591C405.076 249.828 405.035 250.056 405.012 250.274ZM414.206 243.5L412.388 254H410.132L411.95 243.5H414.206ZM418.185 252.175L419.688 243.5H421.951L420.133 254H418.116L418.185 252.175ZM414.097 250.445L414.11 250.295C414.165 249.844 414.268 249.388 414.418 248.928C414.568 248.467 414.773 248.048 415.033 247.67C415.298 247.292 415.623 246.991 416.011 246.768C416.403 246.544 416.868 246.442 417.405 246.46C417.861 246.478 418.235 246.615 418.526 246.87C418.818 247.125 419.044 247.449 419.203 247.841C419.363 248.228 419.472 248.636 419.531 249.064C419.59 249.493 419.616 249.887 419.606 250.247L419.586 250.432C419.518 250.819 419.399 251.231 419.23 251.669C419.066 252.102 418.85 252.51 418.581 252.893C418.317 253.271 418.002 253.578 417.638 253.815C417.273 254.048 416.861 254.157 416.4 254.144C415.899 254.13 415.489 254.009 415.17 253.781C414.851 253.553 414.605 253.257 414.432 252.893C414.263 252.528 414.154 252.132 414.104 251.703C414.058 251.275 414.056 250.855 414.097 250.445ZM416.366 250.288L416.353 250.432C416.339 250.596 416.327 250.785 416.318 250.999C416.309 251.213 416.321 251.423 416.353 251.628C416.389 251.833 416.464 252.006 416.578 252.147C416.697 252.284 416.872 252.359 417.104 252.373C417.442 252.387 417.717 252.307 417.932 252.134C418.15 251.961 418.317 251.74 418.431 251.471C418.549 251.197 418.624 250.917 418.656 250.63L418.718 250.083C418.741 249.896 418.752 249.698 418.752 249.488C418.757 249.279 418.734 249.08 418.684 248.894C418.633 248.707 418.542 248.552 418.41 248.429C418.278 248.306 418.087 248.242 417.836 248.237C417.572 248.228 417.348 248.29 417.166 248.422C416.988 248.554 416.845 248.727 416.735 248.941C416.631 249.151 416.549 249.377 416.489 249.618C416.435 249.855 416.394 250.078 416.366 250.288ZM431.439 244.04L429.771 254H427.522L428.794 246.686L426.477 247.342L426.791 245.517L431.187 244.047L431.439 244.04ZM440.251 250.11L439.943 251.888H432.991L433.114 250.37L438.022 244.047H439.93L437.387 247.369L435.329 250.097L440.251 250.11ZM440.326 244.047L438.604 254H436.354L438.077 244.047H440.326ZM443.881 248.148L442.37 256.844H440.121L441.898 246.604H443.983L443.881 248.148ZM447.914 250.172L447.894 250.315C447.843 250.762 447.741 251.213 447.586 251.669C447.436 252.125 447.228 252.542 446.964 252.92C446.704 253.298 446.381 253.601 445.993 253.829C445.606 254.052 445.15 254.157 444.626 254.144C444.166 254.13 443.79 254.002 443.498 253.761C443.206 253.515 442.979 253.205 442.814 252.831C442.655 252.453 442.543 252.054 442.479 251.635C442.42 251.211 442.395 250.817 442.404 250.452L442.425 250.254C442.493 249.853 442.607 249.429 442.767 248.982C442.926 248.536 443.136 248.121 443.396 247.738C443.655 247.351 443.967 247.039 444.332 246.802C444.697 246.56 445.12 246.446 445.604 246.46C446.109 246.474 446.524 246.594 446.848 246.822C447.171 247.046 447.417 247.34 447.586 247.704C447.755 248.064 447.862 248.461 447.907 248.894C447.953 249.326 447.955 249.753 447.914 250.172ZM445.651 250.309L445.665 250.165C445.679 250.001 445.69 249.812 445.699 249.598C445.708 249.383 445.695 249.174 445.658 248.969C445.626 248.764 445.551 248.593 445.433 248.456C445.319 248.315 445.143 248.24 444.906 248.23C444.628 248.217 444.396 248.26 444.209 248.36C444.022 248.461 443.869 248.6 443.751 248.777C443.637 248.955 443.548 249.156 443.484 249.379C443.421 249.598 443.375 249.823 443.348 250.056L443.286 250.616C443.254 250.876 443.247 251.14 443.266 251.409C443.284 251.674 443.361 251.897 443.498 252.079C443.639 252.261 443.876 252.357 444.209 252.366C444.473 252.371 444.692 252.307 444.865 252.175C445.043 252.043 445.184 251.869 445.289 251.655C445.398 251.441 445.48 251.215 445.535 250.979C445.59 250.737 445.629 250.514 445.651 250.309ZM453.314 246.604L453.034 248.203H448.7L448.98 246.604H453.314ZM450.204 244.765H452.453L451.277 251.601C451.259 251.76 451.259 251.892 451.277 251.997C451.296 252.097 451.343 252.175 451.421 252.229C451.503 252.28 451.628 252.309 451.797 252.318C451.893 252.323 451.988 252.321 452.084 252.312C452.18 252.302 452.275 252.293 452.371 252.284L452.214 253.952C452.018 254.016 451.817 254.062 451.612 254.089C451.412 254.116 451.207 254.13 450.997 254.13C450.532 254.121 450.143 254.027 449.828 253.85C449.518 253.667 449.293 253.41 449.151 253.077C449.015 252.74 448.967 252.339 449.008 251.874L450.204 244.765Z" fill="white"/>
<path d="M352.746 197.574H349.123L349.104 195.787H352.268C352.801 195.787 353.254 195.709 353.625 195.553C354.003 195.39 354.289 195.159 354.484 194.859C354.68 194.553 354.777 194.186 354.777 193.756C354.777 193.281 354.686 192.893 354.504 192.594C354.322 192.294 354.042 192.076 353.664 191.939C353.293 191.803 352.818 191.734 352.238 191.734H349.865V204H347.414V189.781H352.238C353.02 189.781 353.716 189.856 354.328 190.006C354.947 190.156 355.471 190.39 355.9 190.709C356.337 191.021 356.665 191.419 356.887 191.9C357.115 192.382 357.229 192.955 357.229 193.619C357.229 194.205 357.089 194.742 356.809 195.23C356.529 195.712 356.115 196.106 355.568 196.412C355.021 196.718 354.341 196.9 353.527 196.959L352.746 197.574ZM352.639 204H348.352L349.455 202.057H352.639C353.192 202.057 353.654 201.965 354.025 201.783C354.396 201.594 354.673 201.337 354.855 201.012C355.044 200.68 355.139 200.292 355.139 199.85C355.139 199.387 355.057 198.987 354.895 198.648C354.732 198.303 354.475 198.04 354.123 197.857C353.771 197.669 353.312 197.574 352.746 197.574H349.992L350.012 195.787H353.596L354.152 196.461C354.934 196.487 355.575 196.66 356.076 196.979C356.584 197.298 356.962 197.711 357.209 198.219C357.456 198.727 357.58 199.273 357.58 199.859C357.58 200.764 357.382 201.523 356.984 202.135C356.594 202.747 356.031 203.212 355.295 203.531C354.559 203.844 353.674 204 352.639 204ZM359.367 198.834V198.609C359.367 197.848 359.478 197.141 359.699 196.49C359.921 195.833 360.24 195.263 360.656 194.781C361.079 194.293 361.594 193.915 362.199 193.648C362.811 193.375 363.501 193.238 364.27 193.238C365.044 193.238 365.734 193.375 366.34 193.648C366.952 193.915 367.469 194.293 367.893 194.781C368.316 195.263 368.638 195.833 368.859 196.49C369.081 197.141 369.191 197.848 369.191 198.609V198.834C369.191 199.596 369.081 200.302 368.859 200.953C368.638 201.604 368.316 202.174 367.893 202.662C367.469 203.144 366.955 203.521 366.35 203.795C365.744 204.062 365.057 204.195 364.289 204.195C363.514 204.195 362.821 204.062 362.209 203.795C361.604 203.521 361.089 203.144 360.666 202.662C360.243 202.174 359.921 201.604 359.699 200.953C359.478 200.302 359.367 199.596 359.367 198.834ZM361.721 198.609V198.834C361.721 199.309 361.77 199.758 361.867 200.182C361.965 200.605 362.118 200.976 362.326 201.295C362.535 201.614 362.801 201.865 363.127 202.047C363.452 202.229 363.84 202.32 364.289 202.32C364.725 202.32 365.103 202.229 365.422 202.047C365.747 201.865 366.014 201.614 366.223 201.295C366.431 200.976 366.584 200.605 366.682 200.182C366.786 199.758 366.838 199.309 366.838 198.834V198.609C366.838 198.141 366.786 197.698 366.682 197.281C366.584 196.858 366.428 196.484 366.213 196.158C366.005 195.833 365.738 195.579 365.412 195.396C365.093 195.208 364.712 195.113 364.27 195.113C363.827 195.113 363.443 195.208 363.117 195.396C362.798 195.579 362.535 195.833 362.326 196.158C362.118 196.484 361.965 196.858 361.867 197.281C361.77 197.698 361.721 198.141 361.721 198.609ZM377.609 201.812V189H379.973V204H377.834L377.609 201.812ZM370.734 198.834V198.629C370.734 197.828 370.829 197.099 371.018 196.441C371.206 195.777 371.48 195.208 371.838 194.732C372.196 194.251 372.632 193.883 373.146 193.629C373.661 193.368 374.24 193.238 374.885 193.238C375.523 193.238 376.083 193.362 376.564 193.609C377.046 193.857 377.456 194.212 377.795 194.674C378.133 195.13 378.404 195.676 378.605 196.314C378.807 196.946 378.951 197.649 379.035 198.424V199.078C378.951 199.833 378.807 200.523 378.605 201.148C378.404 201.773 378.133 202.314 377.795 202.77C377.456 203.225 377.043 203.577 376.555 203.824C376.073 204.072 375.51 204.195 374.865 204.195C374.227 204.195 373.651 204.062 373.137 203.795C372.629 203.528 372.196 203.154 371.838 202.672C371.48 202.19 371.206 201.624 371.018 200.973C370.829 200.315 370.734 199.602 370.734 198.834ZM373.088 198.629V198.834C373.088 199.316 373.13 199.765 373.215 200.182C373.306 200.598 373.446 200.966 373.635 201.285C373.824 201.598 374.068 201.845 374.367 202.027C374.673 202.203 375.038 202.291 375.461 202.291C375.995 202.291 376.434 202.174 376.779 201.939C377.124 201.705 377.395 201.389 377.59 200.992C377.792 200.589 377.928 200.139 378 199.645V197.877C377.961 197.493 377.88 197.135 377.756 196.803C377.639 196.471 377.479 196.181 377.277 195.934C377.076 195.68 376.825 195.484 376.525 195.348C376.232 195.204 375.884 195.133 375.48 195.133C375.051 195.133 374.686 195.224 374.387 195.406C374.087 195.589 373.84 195.839 373.645 196.158C373.456 196.477 373.316 196.848 373.225 197.271C373.133 197.695 373.088 198.147 373.088 198.629ZM385.5 202.848L388.371 193.434H390.891L386.652 205.611C386.555 205.872 386.428 206.155 386.271 206.461C386.115 206.767 385.91 207.057 385.656 207.33C385.409 207.61 385.1 207.835 384.729 208.004C384.357 208.18 383.908 208.268 383.381 208.268C383.173 208.268 382.971 208.248 382.775 208.209C382.587 208.176 382.408 208.141 382.238 208.102L382.229 206.305C382.294 206.311 382.372 206.318 382.463 206.324C382.561 206.331 382.639 206.334 382.697 206.334C383.088 206.334 383.413 206.285 383.674 206.188C383.934 206.096 384.146 205.947 384.309 205.738C384.478 205.53 384.621 205.25 384.738 204.898L385.5 202.848ZM383.879 193.434L386.389 201.344L386.809 203.824L385.178 204.244L381.34 193.434H383.879ZM403.508 189.732V204H401.154V192.525L397.668 193.707V191.764L403.225 189.732H403.508ZM419.855 189.732V204H417.502V192.525L414.016 193.707V191.764L419.572 189.732H419.855ZM434.592 198.932V200.807H424.338L424.26 199.391L430.393 189.781H432.277L430.236 193.277L426.711 198.932H434.592ZM432.814 189.781V204H430.461V189.781H432.814ZM438.664 195.465V208.062H436.311V193.434H438.479L438.664 195.465ZM445.549 198.619V198.824C445.549 199.592 445.458 200.305 445.275 200.963C445.1 201.614 444.836 202.184 444.484 202.672C444.139 203.154 443.713 203.528 443.205 203.795C442.697 204.062 442.111 204.195 441.447 204.195C440.79 204.195 440.214 204.075 439.719 203.834C439.23 203.587 438.817 203.238 438.479 202.789C438.14 202.34 437.867 201.812 437.658 201.207C437.456 200.595 437.313 199.924 437.229 199.195V198.404C437.313 197.63 437.456 196.926 437.658 196.295C437.867 195.663 438.14 195.12 438.479 194.664C438.817 194.208 439.23 193.857 439.719 193.609C440.207 193.362 440.777 193.238 441.428 193.238C442.092 193.238 442.681 193.368 443.195 193.629C443.71 193.883 444.143 194.247 444.494 194.723C444.846 195.191 445.109 195.758 445.285 196.422C445.461 197.079 445.549 197.812 445.549 198.619ZM443.195 198.824V198.619C443.195 198.131 443.15 197.678 443.059 197.262C442.967 196.839 442.824 196.467 442.629 196.148C442.434 195.829 442.183 195.582 441.877 195.406C441.577 195.224 441.216 195.133 440.793 195.133C440.376 195.133 440.018 195.204 439.719 195.348C439.419 195.484 439.169 195.676 438.967 195.924C438.765 196.171 438.609 196.461 438.498 196.793C438.387 197.118 438.309 197.473 438.264 197.857V199.752C438.342 200.221 438.475 200.65 438.664 201.041C438.853 201.432 439.12 201.744 439.465 201.979C439.816 202.206 440.266 202.32 440.812 202.32C441.236 202.32 441.597 202.229 441.896 202.047C442.196 201.865 442.44 201.614 442.629 201.295C442.824 200.969 442.967 200.595 443.059 200.172C443.15 199.749 443.195 199.299 443.195 198.824ZM452.395 193.434V195.152H446.438V193.434H452.395ZM448.156 190.846H450.51V201.08C450.51 201.406 450.555 201.656 450.646 201.832C450.744 202.001 450.878 202.115 451.047 202.174C451.216 202.232 451.415 202.262 451.643 202.262C451.805 202.262 451.962 202.252 452.111 202.232C452.261 202.213 452.382 202.193 452.473 202.174L452.482 203.971C452.287 204.029 452.059 204.081 451.799 204.127C451.545 204.173 451.252 204.195 450.92 204.195C450.38 204.195 449.901 204.101 449.484 203.912C449.068 203.717 448.742 203.401 448.508 202.965C448.273 202.529 448.156 201.949 448.156 201.227V190.846Z" fill="white"/>
<path d="M314.438 161.605C314.438 161.254 314.383 160.941 314.273 160.668C314.172 160.395 313.988 160.145 313.723 159.918C313.457 159.691 313.082 159.473 312.598 159.262C312.121 159.043 311.512 158.82 310.77 158.594C309.957 158.344 309.207 158.066 308.52 157.762C307.84 157.449 307.246 157.09 306.738 156.684C306.23 156.27 305.836 155.797 305.555 155.266C305.273 154.727 305.133 154.105 305.133 153.402C305.133 152.707 305.277 152.074 305.566 151.504C305.863 150.934 306.281 150.441 306.82 150.027C307.367 149.605 308.012 149.281 308.754 149.055C309.496 148.82 310.316 148.703 311.215 148.703C312.48 148.703 313.57 148.938 314.484 149.406C315.406 149.875 316.113 150.504 316.605 151.293C317.105 152.082 317.355 152.953 317.355 153.906H314.438C314.438 153.344 314.316 152.848 314.074 152.418C313.84 151.98 313.48 151.637 312.996 151.387C312.52 151.137 311.914 151.012 311.18 151.012C310.484 151.012 309.906 151.117 309.445 151.328C308.984 151.539 308.641 151.824 308.414 152.184C308.188 152.543 308.074 152.949 308.074 153.402C308.074 153.723 308.148 154.016 308.297 154.281C308.445 154.539 308.672 154.781 308.977 155.008C309.281 155.227 309.664 155.434 310.125 155.629C310.586 155.824 311.129 156.012 311.754 156.191C312.699 156.473 313.523 156.785 314.227 157.129C314.93 157.465 315.516 157.848 315.984 158.277C316.453 158.707 316.805 159.195 317.039 159.742C317.273 160.281 317.391 160.895 317.391 161.582C317.391 162.301 317.246 162.949 316.957 163.527C316.668 164.098 316.254 164.586 315.715 164.992C315.184 165.391 314.543 165.699 313.793 165.918C313.051 166.129 312.223 166.234 311.309 166.234C310.488 166.234 309.68 166.125 308.883 165.906C308.094 165.688 307.375 165.355 306.727 164.91C306.078 164.457 305.562 163.895 305.18 163.223C304.797 162.543 304.605 161.75 304.605 160.844H307.547C307.547 161.398 307.641 161.871 307.828 162.262C308.023 162.652 308.293 162.973 308.637 163.223C308.98 163.465 309.379 163.645 309.832 163.762C310.293 163.879 310.785 163.938 311.309 163.938C311.996 163.938 312.57 163.84 313.031 163.645C313.5 163.449 313.852 163.176 314.086 162.824C314.32 162.473 314.438 162.066 314.438 161.605ZM327.34 163.012V153.32H330.176V166H327.504L327.34 163.012ZM327.738 160.375L328.688 160.352C328.688 161.203 328.594 161.988 328.406 162.707C328.219 163.418 327.93 164.039 327.539 164.57C327.148 165.094 326.648 165.504 326.039 165.801C325.43 166.09 324.699 166.234 323.848 166.234C323.23 166.234 322.664 166.145 322.148 165.965C321.633 165.785 321.188 165.508 320.812 165.133C320.445 164.758 320.16 164.27 319.957 163.668C319.754 163.066 319.652 162.348 319.652 161.512V153.32H322.477V161.535C322.477 161.996 322.531 162.383 322.641 162.695C322.75 163 322.898 163.246 323.086 163.434C323.273 163.621 323.492 163.754 323.742 163.832C323.992 163.91 324.258 163.949 324.539 163.949C325.344 163.949 325.977 163.793 326.438 163.48C326.906 163.16 327.238 162.73 327.434 162.191C327.637 161.652 327.738 161.047 327.738 160.375ZM333.082 148H335.906V163.293L335.637 166H333.082V148ZM344.18 159.543V159.789C344.18 160.727 344.074 161.59 343.863 162.379C343.66 163.16 343.348 163.84 342.926 164.418C342.512 164.996 341.996 165.445 341.379 165.766C340.77 166.078 340.062 166.234 339.258 166.234C338.469 166.234 337.781 166.086 337.195 165.789C336.609 165.492 336.117 165.07 335.719 164.523C335.328 163.977 335.012 163.324 334.77 162.566C334.527 161.809 334.355 160.973 334.254 160.059V159.273C334.355 158.352 334.527 157.516 334.77 156.766C335.012 156.008 335.328 155.355 335.719 154.809C336.117 154.254 336.605 153.828 337.184 153.531C337.77 153.234 338.453 153.086 339.234 153.086C340.047 153.086 340.762 153.242 341.379 153.555C342.004 153.867 342.523 154.312 342.938 154.891C343.352 155.461 343.66 156.141 343.863 156.93C344.074 157.719 344.18 158.59 344.18 159.543ZM341.355 159.789V159.543C341.355 158.973 341.309 158.438 341.215 157.938C341.121 157.43 340.965 156.984 340.746 156.602C340.535 156.219 340.246 155.918 339.879 155.699C339.52 155.473 339.07 155.359 338.531 155.359C338.031 155.359 337.602 155.445 337.242 155.617C336.883 155.789 336.582 156.023 336.34 156.32C336.098 156.617 335.906 156.961 335.766 157.352C335.633 157.742 335.543 158.164 335.496 158.617V160.738C335.566 161.324 335.715 161.863 335.941 162.355C336.176 162.84 336.504 163.23 336.926 163.527C337.348 163.816 337.891 163.961 338.555 163.961C339.078 163.961 339.52 163.855 339.879 163.645C340.238 163.434 340.523 163.141 340.734 162.766C340.953 162.383 341.109 161.938 341.203 161.43C341.305 160.922 341.355 160.375 341.355 159.789ZM359.285 148.938V166H356.367V148.938H359.285ZM364.641 148.938V151.281H351.059V148.938H364.641ZM369.633 153.32V166H366.797V153.32H369.633ZM366.609 149.992C366.609 149.562 366.75 149.207 367.031 148.926C367.32 148.637 367.719 148.492 368.227 148.492C368.727 148.492 369.121 148.637 369.41 148.926C369.699 149.207 369.844 149.562 369.844 149.992C369.844 150.414 369.699 150.766 369.41 151.047C369.121 151.328 368.727 151.469 368.227 151.469C367.719 151.469 367.32 151.328 367.031 151.047C366.75 150.766 366.609 150.414 366.609 149.992ZM378.539 153.32V155.383H371.391V153.32H378.539ZM373.453 150.215H376.277V162.496C376.277 162.887 376.332 163.188 376.441 163.398C376.559 163.602 376.719 163.738 376.922 163.809C377.125 163.879 377.363 163.914 377.637 163.914C377.832 163.914 378.02 163.902 378.199 163.879C378.379 163.855 378.523 163.832 378.633 163.809L378.645 165.965C378.41 166.035 378.137 166.098 377.824 166.152C377.52 166.207 377.168 166.234 376.77 166.234C376.121 166.234 375.547 166.121 375.047 165.895C374.547 165.66 374.156 165.281 373.875 164.758C373.594 164.234 373.453 163.539 373.453 162.672V150.215ZM383.742 148V166H380.906V148H383.742ZM392.426 166.234C391.488 166.234 390.641 166.082 389.883 165.777C389.133 165.465 388.492 165.031 387.961 164.477C387.438 163.922 387.035 163.27 386.754 162.52C386.473 161.77 386.332 160.961 386.332 160.094V159.625C386.332 158.633 386.477 157.734 386.766 156.93C387.055 156.125 387.457 155.438 387.973 154.867C388.488 154.289 389.098 153.848 389.801 153.543C390.504 153.238 391.266 153.086 392.086 153.086C392.992 153.086 393.785 153.238 394.465 153.543C395.145 153.848 395.707 154.277 396.152 154.832C396.605 155.379 396.941 156.031 397.16 156.789C397.387 157.547 397.5 158.383 397.5 159.297V160.504H387.703V158.477H394.711V158.254C394.695 157.746 394.594 157.27 394.406 156.824C394.227 156.379 393.949 156.02 393.574 155.746C393.199 155.473 392.699 155.336 392.074 155.336C391.605 155.336 391.188 155.438 390.82 155.641C390.461 155.836 390.16 156.121 389.918 156.496C389.676 156.871 389.488 157.324 389.355 157.855C389.23 158.379 389.168 158.969 389.168 159.625V160.094C389.168 160.648 389.242 161.164 389.391 161.641C389.547 162.109 389.773 162.52 390.07 162.871C390.367 163.223 390.727 163.5 391.148 163.703C391.57 163.898 392.051 163.996 392.59 163.996C393.27 163.996 393.875 163.859 394.406 163.586C394.938 163.312 395.398 162.926 395.789 162.426L397.277 163.867C397.004 164.266 396.648 164.648 396.211 165.016C395.773 165.375 395.238 165.668 394.605 165.895C393.98 166.121 393.254 166.234 392.426 166.234ZM416.953 163.75V166H405.516V164.066L411.07 158.008C411.68 157.32 412.16 156.727 412.512 156.227C412.863 155.727 413.109 155.277 413.25 154.879C413.398 154.473 413.473 154.078 413.473 153.695C413.473 153.156 413.371 152.684 413.168 152.277C412.973 151.863 412.684 151.539 412.301 151.305C411.918 151.062 411.453 150.941 410.906 150.941C410.273 150.941 409.742 151.078 409.312 151.352C408.883 151.625 408.559 152.004 408.34 152.488C408.121 152.965 408.012 153.512 408.012 154.129H405.188C405.188 153.137 405.414 152.23 405.867 151.41C406.32 150.582 406.977 149.926 407.836 149.441C408.695 148.949 409.73 148.703 410.941 148.703C412.082 148.703 413.051 148.895 413.848 149.277C414.645 149.66 415.25 150.203 415.664 150.906C416.086 151.609 416.297 152.441 416.297 153.402C416.297 153.934 416.211 154.461 416.039 154.984C415.867 155.508 415.621 156.031 415.301 156.555C414.988 157.07 414.617 157.59 414.188 158.113C413.758 158.629 413.285 159.152 412.77 159.684L409.078 163.75H416.953ZM430.91 159.918V162.168H418.605L418.512 160.469L425.871 148.938H428.133L425.684 153.133L421.453 159.918H430.91ZM428.777 148.938V166H425.953V148.938H428.777ZM435.797 155.758V170.875H432.973V153.32H435.574L435.797 155.758ZM444.059 159.543V159.789C444.059 160.711 443.949 161.566 443.73 162.355C443.52 163.137 443.203 163.82 442.781 164.406C442.367 164.984 441.855 165.434 441.246 165.754C440.637 166.074 439.934 166.234 439.137 166.234C438.348 166.234 437.656 166.09 437.062 165.801C436.477 165.504 435.98 165.086 435.574 164.547C435.168 164.008 434.84 163.375 434.59 162.648C434.348 161.914 434.176 161.109 434.074 160.234V159.285C434.176 158.355 434.348 157.512 434.59 156.754C434.84 155.996 435.168 155.344 435.574 154.797C435.98 154.25 436.477 153.828 437.062 153.531C437.648 153.234 438.332 153.086 439.113 153.086C439.91 153.086 440.617 153.242 441.234 153.555C441.852 153.859 442.371 154.297 442.793 154.867C443.215 155.43 443.531 156.109 443.742 156.906C443.953 157.695 444.059 158.574 444.059 159.543ZM441.234 159.789V159.543C441.234 158.957 441.18 158.414 441.07 157.914C440.961 157.406 440.789 156.961 440.555 156.578C440.32 156.195 440.02 155.898 439.652 155.688C439.293 155.469 438.859 155.359 438.352 155.359C437.852 155.359 437.422 155.445 437.062 155.617C436.703 155.781 436.402 156.012 436.16 156.309C435.918 156.605 435.73 156.953 435.598 157.352C435.465 157.742 435.371 158.168 435.316 158.629V160.902C435.41 161.465 435.57 161.98 435.797 162.449C436.023 162.918 436.344 163.293 436.758 163.574C437.18 163.848 437.719 163.984 438.375 163.984C438.883 163.984 439.316 163.875 439.676 163.656C440.035 163.438 440.328 163.137 440.555 162.754C440.789 162.363 440.961 161.914 441.07 161.406C441.18 160.898 441.234 160.359 441.234 159.789ZM452.273 153.32V155.383H445.125V153.32H452.273ZM447.188 150.215H450.012V162.496C450.012 162.887 450.066 163.188 450.176 163.398C450.293 163.602 450.453 163.738 450.656 163.809C450.859 163.879 451.098 163.914 451.371 163.914C451.566 163.914 451.754 163.902 451.934 163.879C452.113 163.855 452.258 163.832 452.367 163.809L452.379 165.965C452.145 166.035 451.871 166.098 451.559 166.152C451.254 166.207 450.902 166.234 450.504 166.234C449.855 166.234 449.281 166.121 448.781 165.895C448.281 165.66 447.891 165.281 447.609 164.758C447.328 164.234 447.188 163.539 447.188 162.672V150.215Z" fill="white"/>
<path d="M212 68L212 286" stroke="#FF30D9" stroke-width="3" stroke-linecap="round"/>
<path d="M690.383 26.884C687.071 26.884 684.491 25.852 682.643 23.788C680.795 21.724 679.871 18.688 679.871 14.68V13.96C679.871 9.856 680.867 6.832 682.859 4.888C684.875 2.92 687.539 1.936 690.851 1.936C693.155 1.936 695.135 2.38 696.791 3.268V5.644C694.607 4.78 692.579 4.348 690.707 4.348C688.307 4.348 686.399 5.104 684.983 6.616C683.591 8.128 682.895 10.42 682.895 13.492V14.68C682.895 21.208 685.511 24.472 690.743 24.472C692.831 24.472 694.931 23.944 697.043 22.888V25.3C695.219 26.356 692.999 26.884 690.383 26.884ZM708.215 26.812C705.695 26.812 703.715 26.032 702.275 24.472C700.859 22.912 700.151 20.716 700.151 17.884V17.344C700.151 14.56 700.883 12.364 702.347 10.756C703.835 9.124 705.803 8.308 708.251 8.308C710.771 8.308 712.751 9.1 714.191 10.684C715.631 12.244 716.351 14.428 716.351 17.236V17.74C716.351 20.548 715.607 22.768 714.119 24.4C712.631 26.008 710.663 26.812 708.215 26.812ZM708.287 24.544C709.919 24.544 711.203 23.992 712.139 22.888C713.075 21.76 713.543 20.152 713.543 18.064V17.164C713.543 14.836 713.051 13.156 712.067 12.124C711.107 11.092 709.823 10.576 708.215 10.576C706.583 10.576 705.299 11.14 704.363 12.268C703.427 13.396 702.959 14.992 702.959 17.056V17.956C702.959 22.348 704.735 24.544 708.287 24.544ZM720.569 26.488V0.711999H723.341V26.488H720.569ZM735.601 26.812C733.081 26.812 731.101 26.032 729.661 24.472C728.245 22.912 727.537 20.716 727.537 17.884V17.344C727.537 14.56 728.269 12.364 729.733 10.756C731.221 9.124 733.189 8.308 735.637 8.308C738.157 8.308 740.137 9.1 741.577 10.684C743.017 12.244 743.737 14.428 743.737 17.236V17.74C743.737 20.548 742.993 22.768 741.505 24.4C740.017 26.008 738.049 26.812 735.601 26.812ZM735.673 24.544C737.305 24.544 738.589 23.992 739.525 22.888C740.461 21.76 740.929 20.152 740.929 18.064V17.164C740.929 14.836 740.437 13.156 739.453 12.124C738.493 11.092 737.209 10.576 735.601 10.576C733.969 10.576 732.685 11.14 731.749 12.268C730.813 13.396 730.345 14.992 730.345 17.056V17.956C730.345 22.348 732.121 24.544 735.673 24.544ZM747.884 26.488V8.632H750.512V10.648H750.692C751.22 10.024 751.94 9.508 752.852 9.1C753.764 8.668 754.7 8.452 755.66 8.452C756.14 8.452 756.5 8.476 756.74 8.524V11.008C756.284 10.936 755.852 10.9 755.444 10.9C753.692 10.9 752.096 11.416 750.656 12.448V26.488H747.884ZM774.322 26.776C771.97 26.776 770.05 26.356 768.562 25.516V23.32C769.306 23.608 769.834 23.8 770.146 23.896C770.458 23.992 770.962 24.112 771.658 24.256C772.378 24.376 773.134 24.436 773.926 24.436C776.59 24.436 777.922 23.56 777.922 21.808C777.922 20.992 777.694 20.368 777.238 19.936C776.782 19.504 775.978 19.12 774.826 18.784L773.062 18.316C771.622 17.908 770.53 17.344 769.786 16.624C769.066 15.88 768.706 14.8 768.706 13.384C768.706 11.824 769.222 10.588 770.254 9.676C771.286 8.764 772.798 8.308 774.79 8.308C776.734 8.308 778.354 8.656 779.65 9.352V11.584C778.402 10.96 776.83 10.648 774.934 10.648C772.534 10.648 771.334 11.476 771.334 13.132C771.334 13.9 771.526 14.476 771.91 14.86C772.318 15.244 773.014 15.58 773.998 15.868L775.798 16.372C777.574 16.828 778.822 17.428 779.542 18.172C780.262 18.892 780.622 20.008 780.622 21.52C780.622 23.2 780.058 24.496 778.93 25.408C777.826 26.32 776.29 26.776 774.322 26.776ZM786.096 31.852C785.28 31.852 784.536 31.684 783.864 31.348V29.296C784.872 29.464 785.448 29.548 785.592 29.548C786.552 29.548 787.296 29.404 787.824 29.116C788.352 28.828 788.796 28.228 789.156 27.316L789.696 25.84L782.856 8.632H785.808L791.064 22.204H791.136L795.96 8.632H798.732L791.712 27.604C791.112 29.188 790.392 30.292 789.552 30.916C788.736 31.54 787.584 31.852 786.096 31.852ZM806.631 26.776C804.279 26.776 802.359 26.356 800.871 25.516V23.32C801.615 23.608 802.143 23.8 802.455 23.896C802.767 23.992 803.271 24.112 803.967 24.256C804.687 24.376 805.443 24.436 806.235 24.436C808.899 24.436 810.231 23.56 810.231 21.808C810.231 20.992 810.003 20.368 809.547 19.936C809.091 19.504 808.287 19.12 807.135 18.784L805.371 18.316C803.931 17.908 802.839 17.344 802.095 16.624C801.375 15.88 801.015 14.8 801.015 13.384C801.015 11.824 801.531 10.588 802.563 9.676C803.595 8.764 805.107 8.308 807.099 8.308C809.043 8.308 810.663 8.656 811.959 9.352V11.584C810.711 10.96 809.139 10.648 807.243 10.648C804.843 10.648 803.643 11.476 803.643 13.132C803.643 13.9 803.835 14.476 804.219 14.86C804.627 15.244 805.323 15.58 806.307 15.868L808.107 16.372C809.883 16.828 811.131 17.428 811.851 18.172C812.571 18.892 812.931 20.008 812.931 21.52C812.931 23.2 812.367 24.496 811.239 25.408C810.135 26.32 808.599 26.776 806.631 26.776ZM822.688 26.704C819.592 26.704 818.044 25.288 818.044 22.456V10.936H815.488V8.668H818.044V4.42H820.78V8.668H825.352V10.936H820.78V22.024C820.78 22.912 820.96 23.536 821.32 23.896C821.704 24.256 822.4 24.436 823.408 24.436C824.224 24.436 824.992 24.328 825.712 24.112V25.984C824.656 26.464 823.648 26.704 822.688 26.704ZM836.966 26.812C834.206 26.812 832.106 26.02 830.666 24.436C829.226 22.852 828.506 20.644 828.506 17.812V17.308C828.506 14.356 829.25 12.124 830.738 10.612C832.226 9.076 834.074 8.308 836.282 8.308C841.082 8.308 843.482 11.104 843.482 16.696V18.244H831.314C831.386 20.428 831.926 22.012 832.934 22.996C833.942 23.956 835.43 24.436 837.398 24.436C839.222 24.436 841.082 23.992 842.978 23.104V25.156C841.394 26.26 839.39 26.812 836.966 26.812ZM836.21 10.54C834.938 10.54 833.834 10.972 832.898 11.836C831.986 12.7 831.458 14.104 831.314 16.048H840.602C840.602 14.128 840.242 12.736 839.522 11.872C838.802 10.984 837.698 10.54 836.21 10.54ZM847.622 26.488V8.632H850.25V10.18H850.394C852.362 8.932 854.222 8.308 855.974 8.308C858.014 8.308 859.442 8.968 860.258 10.288H860.402C862.442 8.968 864.458 8.308 866.45 8.308C869.714 8.308 871.346 9.928 871.346 13.168V26.488H868.646V13.744C868.646 12.64 868.394 11.86 867.89 11.404C867.41 10.924 866.57 10.684 865.37 10.684C864.242 10.684 862.706 11.116 860.762 11.98C860.834 12.412 860.87 12.808 860.87 13.168V26.488H858.134V13.744C858.134 12.664 857.882 11.884 857.378 11.404C856.898 10.924 856.07 10.684 854.894 10.684C853.694 10.684 852.182 11.116 850.358 11.98V26.488H847.622Z" fill="#FF30D9"/>
<rect x="525.5" y="42.5" width="501" height="262" rx="71.5" stroke="#FF30D9" stroke-width="3"/>
<rect width="62" height="62" transform="matrix(1 0 0 -1 652 155)" fill="#3D73FF"/>
<rect width="62" height="62" transform="matrix(1 0 0 -1 776 253)" fill="#ECFF78"/>
<rect width="62" height="62" transform="matrix(1 0 0 -1 714 155)" fill="#648FFF"/>
<rect width="62" height="62" transform="matrix(1 0 0 -1 714 253)" fill="white"/>
<rect width="62" height="62" transform="matrix(1 0 0 -1 776 155)" fill="#8BABFF"/>
<rect x="0.5" y="-0.5" width="61" height="61" transform="matrix(1 0 0 -1 838 252)" fill="black" stroke="white"/>
<rect width="62" height="62" transform="matrix(1 0 0 -1 838 155)" fill="#B1C7FF"/>
<rect width="62" height="62" transform="matrix(1 0 0 -1 652 253)" fill="#D8E3FF"/>
<defs>
<filter id="filter0_d_105_106" x="34.6016" y="154" width="159.266" height="44.4688" filterUnits="userSpaceOnUse" color-interpolation-filters="sRGB">
<feFlood flood-opacity="0" result="BackgroundImageFix"/>
<feColorMatrix in="SourceAlpha" type="matrix" values="0 0 0 0 0 0 0 0 0 0 0 0 0 0 0 0 0 0 127 0" result="hardAlpha"/>
<feOffset dy="4"/>
<feGaussianBlur stdDeviation="2"/>
<feComposite in2="hardAlpha" operator="out"/>
<feColorMatrix type="matrix" values="0 0 0 0 0 0 0 0 0 0 0 0 0 0 0 0 0 0 0.25 0"/>
<feBlend mode="normal" in2="BackgroundImageFix" result="effect1_dropShadow_105_106"/>
<feBlend mode="normal" in="SourceGraphic" in2="effect1_dropShadow_105_106" result="shape"/>
</filter>
</defs>
</svg>
