<svg width="835" height="206" viewBox="0 0 835 206" fill="none" xmlns="http://www.w3.org/2000/svg">
<rect x="420.826" y="58.3242" width="136.986" height="88.3141" transform="rotate(90 420.826 58.3242)" stroke="white" stroke-width="2"/>
<rect x="510.6" y="58.3242" width="136.986" height="88.3141" transform="rotate(90 510.6 58.3242)" stroke="white" stroke-width="2"/>
<rect x="617.138" y="104.833" width="90.4773" height="18.0097" transform="rotate(90 617.138 104.833)" stroke="white" stroke-width="2"/>
<path d="M834 113.298C834 138.579 826.786 161.424 815.175 177.922C803.561 194.424 787.611 204.505 770.104 204.505C752.596 204.505 736.647 194.424 725.033 177.922C713.421 161.424 706.207 138.579 706.207 113.298C706.207 88.0167 713.421 65.1716 725.033 48.6732C736.647 32.1719 752.596 22.0908 770.104 22.0908C787.611 22.0908 803.561 32.1719 815.175 48.6732C826.786 65.1716 834 88.0167 834 113.298Z" stroke="white" stroke-width="2"/>
<rect x="53.9988" y="49.6719" width="189.23" height="97.3891" stroke="white" stroke-width="2"/>
<rect x="85.8704" y="66.4463" width="125.486" height="64.2594" stroke="white" stroke-width="2"/>
<path d="M150.549 98.3665C150.549 99.8031 150.245 101.054 149.802 101.909C149.332 102.815 148.861 103.028 148.614 103.028C148.367 103.028 147.895 102.815 147.426 101.909C146.982 101.054 146.678 99.8031 146.678 98.3665C146.678 96.9299 146.982 95.6789 147.426 94.8236C147.895 93.9184 148.367 93.7051 148.614 93.7051C148.861 93.7051 149.332 93.9184 149.802 94.8236C150.245 95.6789 150.549 96.9299 150.549 98.3665Z" stroke="white" stroke-width="2"/>
<path d="M181.163 98.3665C181.163 99.8031 180.859 101.054 180.415 101.909C179.946 102.815 179.474 103.028 179.227 103.028C178.98 103.028 178.508 102.815 178.039 101.909C177.596 101.054 177.292 99.8031 177.292 98.3665C177.292 96.9299 177.596 95.6789 178.039 94.8236C178.508 93.9184 178.98 93.7051 179.227 93.7051C179.474 93.7051 179.946 93.9184 180.415 94.8236C180.859 95.6789 181.163 96.9299 181.163 98.3665Z" stroke="white" stroke-width="2"/>
<path d="M119.936 98.3665C119.936 99.8031 119.631 101.054 119.188 101.909C118.719 102.815 118.247 103.028 118 103.028C117.753 103.028 117.281 102.815 116.812 101.909C116.369 101.054 116.064 99.8031 116.064 98.3665C116.064 96.9299 116.369 95.6789 116.812 94.8236C117.281 93.9184 117.753 93.7051 118 93.7051C118.247 93.7051 118.719 93.9184 119.188 94.8236C119.631 95.6789 119.936 96.9299 119.936 98.3665Z" stroke="white" stroke-width="2"/>
<rect x="1" y="1" width="289.493" height="194.312" stroke="white" stroke-width="2"/>
</svg>
